<?xml version="1.0" encoding="utf-8"?>
<!-- Svg Vector Icons : http://www.onlinewebfonts.com/icon -->
<!DOCTYPE svg PUBLIC "-//W3C//DTD SVG 1.1//EN" "http://www.w3.org/Graphics/SVG/1.1/DTD/svg11.dtd">
<svg version="1.1" xmlns="http://www.w3.org/2000/svg" xmlns:xlink="http://www.w3.org/1999/xlink" x="0px" y="0px" viewBox="0 0 1000 1000" enable-background="new 0 0 1000 1000" xml:space="preserve">
<metadata> Svg Vector Icons : http://www.onlinewebfonts.com/icon </metadata>
<g><g><path d="M906.8,217.6c28.9,0,52.3,23.4,52.3,52.3v360.6c0,28.8-23.5,52.3-52.3,52.3H448.7c-4.1,0-8.3,0.8-12.1,2.4l-206.4,87.5L200,701.6c-4.9-11.4-16.1-18.8-28.5-18.8H93.2c-28.8,0-52.3-23.5-52.3-52.3V269.9c0-28.8,23.4-52.3,52.3-52.3L906.8,217.6 M906.8,186.7H93.2c-46,0-83.2,37.3-83.2,83.2v360.6c0,46,37.2,83.2,83.2,83.2h78.3l42.3,99.6l234.9-99.6h458.1c46,0,83.2-37.3,83.2-83.2V269.9C990,224,952.8,186.7,906.8,186.7L906.8,186.7z"/></g><g></g><g></g><g></g><g></g><g></g><g></g><g></g><g></g><g></g><g></g><g></g><g></g><g></g><g></g><g></g></g>
</svg>