<svg version="1.1" id="Layer_1" xmlns="http://www.w3.org/2000/svg" xmlns:xlink="http://www.w3.org/1999/xlink" x="0px" y="0px"
	 width="100%" viewBox="0 0 1000 200" enable-background="new 0 0 1000 200" xml:space="preserve">

<path opacity="1.000000" stroke="none" 
	d="
M346.322571,131.881104 
	C352.544922,123.666649 357.556580,114.732887 364.466553,107.651474 
	C369.877960,102.105797 369.796631,95.963837 371.103302,89.529602 
	C374.032745,75.104156 377.429779,60.597813 388.769104,50.090927 
	C391.793335,47.288685 396.690460,45.885345 400.946564,45.201122 
	C405.681183,44.439976 408.601288,48.054882 409.039856,52.873905 
	C409.885986,62.171722 406.131561,69.855354 401.287598,77.367081 
	C395.320312,86.620697 388.392700,94.881165 379.842773,101.921982 
	C377.739746,103.653801 377.370026,107.490463 376.867004,110.823692 
	C382.845245,106.215462 387.712982,98.287102 396.176666,104.243515 
	C401.337128,107.875221 398.716370,114.361649 398.657349,121.597694 
	C402.614227,118.062408 406.309052,115.685234 408.699280,112.368073 
	C411.131989,108.991898 412.028198,104.548256 414.105804,100.858406 
	C415.030487,99.216133 417.176300,97.296272 418.814301,97.252823 
	C421.123413,97.191566 423.370422,98.614830 423.068451,101.998528 
	C422.759186,105.463882 422.999939,108.978325 422.999939,112.465691 
	C427.644165,112.589684 434.263763,105.472458 436.354248,98.293228 
	C441.354889,96.774261 443.761536,99.859764 444.865509,103.802933 
	C446.422180,109.363060 447.297150,115.114021 448.464447,120.787781 
	C454.616730,119.795845 466.955994,108.605125 467.389618,102.868309 
	C467.634033,99.635147 466.177765,96.309311 466.069031,93.006081 
	C465.845123,86.204384 469.463684,81.982048 475.026672,82.000114 
	C482.512909,82.024429 485.070984,84.871910 485.000824,93.099106 
	C484.993896,93.912376 484.999878,94.725761 484.999878,96.739975 
	C483.543884,95.652168 482.563995,95.216614 482.063202,94.462791 
	C481.559570,93.704720 481.596832,92.607880 481.284241,91.698288 
	C480.490448,89.388741 481.637756,85.478371 477.148132,86.071640 
	C474.299774,86.448029 472.243195,91.483650 473.539581,95.015938 
	C476.008087,101.741730 478.687775,108.389999 481.193817,114.848953 
	C486.120026,112.103859 490.977478,109.886505 495.235077,106.832779 
	C497.618011,105.123627 499.374786,102.213837 500.741394,99.505745 
	C502.159943,96.694763 503.560089,93.469353 506.914276,95.316254 
	C508.409180,96.139366 508.951263,100.146126 508.628326,102.532326 
	C507.810394,108.576073 506.235596,114.515877 505.029724,120.510544 
	C504.881866,121.245491 505.134827,122.061081 505.208771,122.916939 
	C514.344727,118.891747 520.915100,104.025452 519.643005,90.390221 
	C507.981720,89.110161 504.183380,86.635834 504.260864,79.010811 
	C507.542877,80.361397 510.530518,81.255104 513.162476,82.767677 
	C515.830933,84.301224 520.990723,82.992134 522.013062,80.052818 
	C523.011963,77.180817 523.829590,74.236557 524.995972,71.436150 
	C525.529602,70.154907 526.709045,69.142624 527.595581,68.008347 
	C529.049133,69.307991 531.152283,70.353661 531.785706,71.973915 
	C532.518066,73.847092 531.956116,76.226242 531.956116,78.496002 
	C535.508179,77.630333 538.911377,76.000191 542.180359,76.235527 
	C545.281311,76.458755 548.241577,78.635780 551.585815,80.094078 
	C552.407532,76.995438 553.007019,73.865341 554.126709,70.933983 
	C554.584534,69.735451 556.709167,67.954872 557.141785,68.186073 
	C558.647461,68.990852 560.246033,70.360474 560.857483,71.894684 
	C561.485291,73.470131 560.996704,75.490501 560.996704,78.031212 
	C567.395874,77.500061 574.633484,72.993233 579.311646,80.915649 
	C579.940735,81.980927 579.830444,83.482742 579.682800,85.519707 
	C572.820251,76.323814 566.582825,83.288231 560.978149,84.973282 
	C559.282349,96.699272 557.352112,107.948929 556.201538,119.277779 
	C555.855408,122.685547 556.596802,128.158173 558.753357,129.423279 
	C562.289856,131.497910 565.442932,127.842545 567.291382,124.274101 
	C571.185974,116.755531 575.113220,109.253807 578.972961,101.717415 
	C579.774902,100.151688 579.982910,98.119949 581.122559,96.936569 
	C582.168396,95.850632 584.168945,95.048904 585.619934,95.219414 
	C586.535706,95.327034 588.021484,97.567215 587.864990,98.650429 
	C587.036255,104.385124 585.713135,110.046387 584.678345,115.754311 
	C584.258728,118.068954 584.135254,120.437279 584.482666,122.985306 
	C591.744019,117.401802 596.887634,110.720573 598.040222,101.436745 
	C598.414490,98.421989 599.513733,95.491341 599.817810,92.475494 
	C600.102539,89.650208 601.396362,88.701691 604.017456,88.998039 
	C606.518372,89.280807 608.033447,90.014542 608.106384,93.164566 
	C608.257568,99.697800 608.990845,106.217560 609.603149,114.306473 
	C611.105286,111.425331 612.106689,109.651909 612.971802,107.814270 
	C614.747314,104.042969 616.030762,99.950264 618.351990,96.562019 
	C619.584839,94.762474 622.565002,94.159958 624.756409,93.017120 
	C625.504272,94.934479 627.077942,96.950096 626.863403,98.752930 
	C625.643188,109.007751 623.995972,119.211792 622.497864,129.406143 
	C624.936768,129.575104 628.543335,127.430176 630.916016,123.229210 
	C635.562378,115.002548 640.062378,106.678917 644.239868,98.206551 
	C647.197754,92.207748 651.683350,90.410477 657.883057,92.890846 
	C660.921021,94.106277 664.500122,93.946777 667.575378,95.100021 
	C669.330444,95.758179 671.473267,97.585403 671.879639,99.264305 
	C673.891968,107.577248 675.383606,116.016235 677.058289,124.408409 
	C681.648132,123.479332 690.479431,113.865082 690.964417,108.127922 
	C692.069458,95.054199 693.005554,81.966133 693.988647,68.882256 
	C694.074402,67.741150 693.999939,66.587997 693.999939,66.675201 
	C691.821655,64.823593 690.415588,63.628384 689.009521,62.433170 
	C690.520447,61.564987 691.936035,60.294205 693.561401,59.909100 
	C697.422852,58.994186 701.706116,55.588955 705.384155,61.372211 
	C700.389404,62.898605 700.918884,66.768410 700.972656,70.559624 
	C701.069458,77.390358 700.780151,84.232063 701.047363,91.053711 
	C701.550049,103.889587 702.267883,116.718750 703.104736,129.537094 
	C703.186157,130.784592 704.722656,131.937119 705.598022,133.153687 
	C699.695984,137.472534 690.601868,137.373398 689.094299,132.897079 
	C697.553284,128.829315 688.643066,122.069252 692.725281,117.437477 
	C692.289612,117.311081 691.853943,117.184685 691.418274,117.058289 
	C688.151672,119.995697 685.315247,123.832108 681.513611,125.651360 
	C676.332153,128.130859 675.099182,131.949417 673.792664,136.921036 
	C672.271484,142.709305 669.814514,148.484955 666.626892,153.550827 
	C660.933960,162.598251 647.159851,161.975006 640.956726,153.097473 
	C636.924561,147.326859 636.160645,141.273529 638.112915,134.721893 
	C640.249268,127.552559 646.616089,124.244286 654.470642,126.208565 
	C657.876343,127.060272 661.242859,128.069138 665.429138,129.228790 
	C664.845642,121.236633 664.297668,113.730957 663.765869,106.446823 
	C659.827515,108.968170 656.869446,111.448448 653.464966,112.822929 
	C651.402588,113.655571 647.769043,113.741013 646.379883,112.474541 
	C642.962280,109.358856 641.884338,111.997292 640.527100,114.039818 
	C637.589661,118.460373 635.060730,123.164948 631.959351,127.460739 
	C628.338074,132.476730 621.985229,134.665619 618.202942,132.709305 
	C614.975830,131.040146 612.970825,123.609840 614.256592,118.329384 
	C614.591187,116.955116 614.699341,115.525696 613.793274,113.924385 
	C612.584839,116.771133 611.523315,119.693924 610.105774,122.432434 
	C609.400391,123.795151 607.665527,125.981834 607.049622,125.782036 
	C605.127686,125.158562 602.922791,123.935486 601.919556,122.282234 
	C600.233276,119.503365 599.387756,116.214272 598.056580,112.801376 
	C596.162109,115.593536 594.408142,118.363281 592.471497,120.998856 
	C586.274353,129.432831 580.908875,128.525925 577.127686,119.668114 
	C577.014404,119.402603 576.633850,119.251160 575.959290,118.712013 
	C573.716064,121.565689 571.554993,124.497391 569.201172,127.265152 
	C565.904541,131.141464 562.647522,135.482925 556.530151,132.970840 
	C550.478943,130.485901 549.495056,125.023788 549.016235,119.384102 
	C548.906189,118.087555 549.000000,116.773705 549.000000,114.988075 
	C545.278564,119.942757 542.033142,124.661942 538.362427,129.023193 
	C535.497559,132.427032 531.791504,135.349792 527.089233,132.881454 
	C522.713379,130.584473 520.169189,126.655464 519.954651,121.421913 
	C519.857483,119.051025 519.271790,116.700157 518.822449,113.787994 
	C516.461243,116.845215 514.702698,119.801422 512.285706,122.049850 
	C510.111633,124.072319 507.045135,126.833687 504.675201,126.567894 
	C500.652222,126.116737 498.347870,122.348297 498.041840,118.081024 
	C497.831360,115.146614 498.001465,112.184914 498.001465,108.027229 
	C492.836029,111.504799 487.796326,113.819435 484.450836,117.623917 
	C482.876740,119.413994 484.210968,124.136040 484.845825,127.409515 
	C485.897522,132.832764 483.571594,136.898865 478.853302,136.999939 
	C471.858032,137.149780 469.066345,132.721161 472.216583,126.437027 
	C473.064911,124.744667 475.048431,122.821548 474.698486,121.475502 
	C473.563324,117.108994 471.587158,112.961098 470.050934,109.026344 
	C462.711487,115.056892 455.908630,120.646553 449.018127,126.308258 
	C447.760803,135.200867 447.072327,145.176239 444.787598,154.771545 
	C442.570068,164.084595 435.792297,168.956879 426.807800,168.886032 
	C420.844788,168.838989 412.193268,166.071930 409.985535,157.202805 
	C406.971130,145.093231 408.231781,136.965424 423.207642,131.056366 
	C427.641266,129.306961 432.281586,128.081268 436.768677,126.634460 
	C436.768677,120.402748 436.768677,114.321640 436.768677,107.367676 
	C434.432678,109.845566 432.529236,111.680351 430.838440,113.693733 
	C426.283752,119.117386 422.447754,119.537483 415.128265,114.581902 
	C414.215057,113.963631 412.219757,113.572243 411.608856,114.099258 
	C407.329285,117.791145 403.962524,122.536491 397.581787,123.416611 
	C396.169312,123.611427 395.196106,126.961319 394.012726,128.853485 
	C392.025757,132.030594 389.799347,134.178726 385.419464,134.167587 
	C380.457123,134.154968 379.536560,130.788635 379.178436,127.600258 
	C378.768951,123.954399 380.973724,120.321457 384.734894,120.230354 
	C388.916595,120.129082 390.222748,118.452591 390.574127,114.905258 
	C390.862976,111.988945 391.192871,109.076691 391.588959,105.373772 
	C383.235779,108.750900 380.827820,115.487221 376.970428,120.972466 
	C376.113037,122.191689 374.340546,124.017982 373.564697,123.769363 
	C372.181976,123.326271 370.397247,121.596199 370.266113,120.258698 
	C369.847412,115.988464 370.110779,111.651382 370.110779,107.340111 
	C369.679962,107.068253 369.249146,106.796394 368.818329,106.524544 
	C366.832977,109.201767 364.762817,111.820862 362.879578,114.568085 
	C358.687866,120.682732 354.920471,127.122559 350.340820,132.925278 
	C347.110199,137.018723 341.596588,135.999878 340.170898,131.014023 
	C338.638275,125.654221 338.429138,119.915955 337.607971,114.098068 
	C334.082733,117.289520 330.213654,123.013794 323.801575,119.060249 
	C319.919312,116.666550 320.571503,112.405899 322.194641,107.335197 
	C318.461365,109.219330 315.477966,110.725021 312.308807,112.324440 
	C316.871460,121.206375 312.409729,128.545120 307.717590,135.455063 
	C304.318512,140.460800 299.280579,143.485245 292.729767,143.023453 
	C286.829498,142.607529 284.434662,138.938843 287.052094,133.778412 
	C290.490570,126.999283 295.146515,121.223885 301.469635,116.844627 
	C303.070038,115.736229 304.350739,114.166183 306.562622,112.062248 
	C299.027100,111.975212 293.847900,115.201462 288.884491,118.807861 
	C288.197083,119.307343 288.134705,120.847115 288.025269,121.929779 
	C287.627075,125.869263 283.951050,127.724304 280.877136,125.173775 
	C279.215698,123.795273 277.599518,121.704903 277.122650,119.664627 
	C274.376221,107.913719 273.967041,96.101730 276.886475,84.248657 
	C277.604645,81.332748 277.495544,78.213074 277.876251,73.965828 
	C270.626587,80.813965 267.930725,88.049118 270.182831,97.925117 
	C266.119202,94.936417 265.101685,91.385292 266.190002,88.363815 
	C268.276154,82.572021 270.852478,76.776642 274.342896,71.760269 
	C275.720520,69.780350 280.191010,69.046585 283.039764,69.411491 
	C284.299927,69.572891 285.563080,73.809631 285.875610,76.314751 
	C286.350861,80.124191 286.000000,84.036690 286.000000,87.905418 
	C286.470581,87.973274 286.941132,88.041122 287.411713,88.108971 
	C288.612762,84.457016 289.632721,80.733040 291.050995,77.167480 
	C294.426483,68.681389 297.555023,59.916508 305.329559,54.250351 
	C312.403839,49.094547 319.226166,52.384148 319.988556,61.116306 
	C321.282928,75.942047 317.423676,89.105553 307.289978,100.252754 
	C305.548370,102.168541 304.076111,104.329201 302.563477,106.268982 
	C304.683960,107.155571 306.904877,108.081055 309.122925,109.013268 
	C309.855835,109.321281 310.824921,110.120911 311.272675,109.890945 
	C315.851837,107.539139 320.975403,105.732124 324.733337,102.403046 
	C332.725464,95.323013 334.388153,94.924553 342.910583,101.958595 
	C343.190186,101.845428 343.633850,101.805885 343.723938,101.606567 
	C344.854065,99.105576 345.657135,95.681923 349.402466,97.242981 
	C353.147888,98.804054 352.516937,102.590042 351.682404,105.498260 
	C350.231476,110.554771 347.653076,115.307831 346.417114,120.399239 
	C345.524658,124.075661 346.041656,128.094223 346.322571,131.881104 
M527.000061,117.736580 
	C527.000061,120.062828 526.702759,122.440796 527.095520,124.698723 
	C527.401123,126.455757 528.174133,128.866104 529.466614,129.497513 
	C530.616760,130.059418 533.273376,129.071045 534.393250,127.919197 
	C543.469177,118.584305 549.907288,108.012947 549.029785,94.285263 
	C548.921997,92.599014 549.222107,90.886696 549.361877,88.747444 
	C542.158752,93.510460 537.464417,85.748047 531.284912,84.727432 
	C530.806274,90.686707 530.606628,95.935387 529.906616,101.116463 
	C529.195312,106.381111 527.990723,111.579109 527.000061,117.736580 
M435.999908,146.353760 
	C436.456635,140.989883 436.913361,135.626007 437.490356,128.849854 
	C430.810181,131.809845 424.729187,133.417145 419.959564,136.847672 
	C410.487183,143.660568 411.322784,152.862823 417.639648,160.967331 
	C422.320587,166.972961 427.801697,166.447861 431.542511,159.774185 
	C433.679565,155.961548 434.554810,151.441589 435.999908,146.353760 
M382.957336,78.368446 
	C381.488281,84.120216 380.019226,89.871986 378.550201,95.623756 
	C379.310883,96.102692 380.071594,96.581619 380.832275,97.060555 
	C384.297485,93.129990 387.898193,89.309464 391.199158,85.245499 
	C397.720276,77.217033 403.673767,68.729706 405.654663,58.377556 
	C406.191956,55.569820 404.333282,52.303619 403.574310,49.247837 
	C401.036896,50.339931 397.881775,50.816662 396.071838,52.633488 
	C389.207642,59.523800 385.951050,68.491730 382.957336,78.368446 
M304.037262,59.596241 
	C294.918182,73.435921 287.005127,98.044128 288.949249,107.514481 
	C304.350952,93.152061 311.595978,75.599236 313.350037,55.527504 
	C312.938263,55.147949 312.526459,54.768394 312.114685,54.388840 
	C309.577301,55.926861 307.039886,57.464882 304.037262,59.596241 
M651.536621,128.000214 
	C647.442932,127.774529 645.038879,130.020920 642.885498,133.262482 
	C638.713562,139.542465 641.268799,148.847092 646.095093,153.324371 
	C650.247803,157.176743 653.207458,157.861176 656.282288,153.021500 
	C659.332764,148.220139 662.001770,143.017090 663.842773,137.648880 
	C665.918213,131.597153 665.425354,131.472366 658.846008,129.942902 
	C656.661743,129.435120 654.540283,128.657211 651.536621,128.000214 
M301.557953,120.962479 
	C300.263916,122.249123 298.762451,123.387451 297.716034,124.851128 
	C294.937225,128.738022 292.305817,132.734253 289.748596,136.771149 
	C289.375977,137.359375 289.411346,138.730164 289.838409,139.154312 
	C290.270203,139.583115 291.521240,139.535263 292.239929,139.253586 
	C293.689789,138.685379 295.250122,138.063202 296.364227,137.030914 
	C301.854767,131.943481 304.147308,125.227325 305.223297,117.694565 
	C304.166351,118.603409 303.109406,119.512260 301.557953,120.962479 
M649.000244,108.526978 
	C649.074951,109.313126 649.149658,110.099274 649.253052,111.187706 
	C655.712280,108.623352 660.955505,105.307129 662.889404,98.531860 
	C657.669373,96.570602 653.873352,98.170525 651.228271,102.477760 
	C650.245972,104.077377 649.730164,105.963448 649.000244,108.526978 
M338.761444,102.968033 
	C337.444275,102.881859 335.505768,102.194778 334.912262,102.808479 
	C331.441498,106.397209 329.281525,110.685219 328.986847,115.652000 
	C329.486176,116.028877 329.985504,116.405746 330.484802,116.782623 
	C334.587524,112.656075 338.690247,108.529533 343.751709,103.438675 
	C341.121185,103.161858 340.341980,103.079857 338.761444,102.968033 
z"/>
<path  opacity="1.000000" stroke="none" 
	d="
M706.008057,119.510971 
	C710.376465,111.259720 714.115967,113.433929 721.693604,118.434967 
	C722.833435,115.044830 724.059937,111.879662 724.947388,108.622154 
	C725.834839,105.364822 725.807800,101.735092 727.243408,98.785316 
	C728.656128,95.882652 727.414429,95.081116 725.396729,94.035095 
	C719.083984,90.762550 715.270508,82.703232 717.068848,76.209389 
	C717.294373,75.395004 718.210266,74.771835 718.806274,74.060104 
	C719.532410,74.807266 720.779724,75.487991 720.885071,76.314247 
	C721.177490,78.609505 720.780945,80.989975 721.046082,83.291916 
	C721.555298,87.713104 723.454163,91.147110 727.823608,92.113022 
	C730.914917,82.050110 733.391602,72.105843 737.074890,62.630615 
	C739.723511,55.816883 746.254089,53.715130 750.453735,58.232449 
	C753.044250,61.019093 754.128479,66.465088 753.731262,70.504967 
	C752.934387,78.609581 749.250366,85.851761 741.565247,89.766426 
	C737.151733,92.014603 736.913879,95.893074 736.000854,99.727295 
	C734.043152,107.948486 732.079041,116.168159 729.893982,125.325638 
	C736.345276,130.510757 744.072144,135.872589 754.489014,135.011963 
	C758.891479,134.648239 763.290283,131.015442 763.947388,126.773163 
	C764.365234,124.075737 764.059631,121.632004 760.254272,121.981056 
	C758.947144,122.100967 757.619690,122.000122 755.905029,122.000122 
	C757.128784,118.052452 760.213318,117.229553 762.813049,118.235176 
	C764.925659,119.052330 767.447021,121.584373 767.809021,123.695137 
	C769.802856,135.321503 757.746460,140.157059 748.170105,137.449188 
	C741.833130,135.657288 736.030396,132.029266 729.877014,129.493835 
	C728.488831,128.921875 726.126282,128.818146 725.089172,129.625427 
	C720.995972,132.811478 716.362122,132.343155 711.914001,131.816986 
	C707.508728,131.295898 705.998657,127.690460 706.008057,119.510971 
M749.142212,61.657490 
	C748.138611,58.557236 746.382141,59.839573 745.312866,61.319836 
	C743.933777,63.229141 742.617126,65.411110 742.091187,67.666328 
	C740.539429,74.320259 739.390625,81.068146 737.935303,88.543640 
	C747.968445,81.887077 751.692078,73.325844 749.142212,61.657490 
M710.000000,121.689148 
	C709.803162,124.442673 709.895691,127.444221 713.248840,127.877876 
	C717.639221,128.445663 718.483582,124.524002 720.092163,121.760590 
	C714.276733,115.614281 712.513855,115.495934 710.000000,121.689148 
z"/>
<path  opacity="1.000000" stroke="none" 
	d="
M589.855347,87.982559 
	C588.883667,87.756531 588.112305,87.676903 587.754272,87.250366 
	C586.432617,85.675804 585.138367,84.047302 584.147156,82.264832 
	C584.020752,82.037422 586.033936,79.960434 586.558472,80.146049 
	C588.720337,80.911102 590.850220,82.031822 592.573669,83.509552 
	C592.861023,83.755936 591.073853,86.421860 589.855347,87.982559 
z"/>

</svg>